<svg xmlns="http://www.w3.org/2000/svg" viewBox="0 0 900 620" font-family="monospace" font-size="12">
  <!-- Background -->
  <rect width="900" height="620" fill="#f8fafc" rx="12"/>

  <!-- Title -->
  <text x="450" y="36" text-anchor="middle" font-size="16" font-weight="bold" fill="#00193c" font-family="sans-serif">Family Pay App — Project Structure</text>

  <!-- Root -->
  <rect x="370" y="55" width="160" height="30" rx="6" fill="#00193c"/>
  <text x="450" y="75" text-anchor="middle" fill="white" font-weight="bold">Family_Pay_App/</text>

  <!-- Level 1 boxes -->
  <rect x="60" y="120" width="80" height="28" rx="5" fill="#002d62"/>
  <text x="100" y="139" text-anchor="middle" fill="white">src/</text>
  <rect x="180" y="120" width="90" height="28" rx="5" fill="#4e6874"/>
  <text x="225" y="139" text-anchor="middle" fill="white">screens/</text>
  <rect x="310" y="120" width="80" height="28" rx="5" fill="#4e6874"/>
  <text x="350" y="139" text-anchor="middle" fill="white">public/</text>
  <rect x="430" y="120" width="80" height="28" rx="5" fill="#4e6874"/>
  <text x="470" y="139" text-anchor="middle" fill="white">assets/</text>
  <rect x="550" y="120" width="80" height="28" rx="5" fill="#4e6874"/>
  <text x="590" y="139" text-anchor="middle" fill="white">scripts/</text>
  <rect x="670" y="120" width="160" height="28" rx="5" fill="#9db8c8"/>
  <text x="750" y="139" text-anchor="middle" fill="#00193c">package.json / vite / ts</text>

  <!-- Lines from root to level 1 -->
  <line x1="450" y1="85" x2="100" y2="120" stroke="#cbd5e1" stroke-width="1.5"/>
  <line x1="450" y1="85" x2="225" y2="120" stroke="#cbd5e1" stroke-width="1.5"/>
  <line x1="450" y1="85" x2="350" y2="120" stroke="#cbd5e1" stroke-width="1.5"/>
  <line x1="450" y1="85" x2="470" y2="120" stroke="#cbd5e1" stroke-width="1.5"/>
  <line x1="450" y1="85" x2="590" y2="120" stroke="#cbd5e1" stroke-width="1.5"/>
  <line x1="450" y1="85" x2="750" y2="120" stroke="#cbd5e1" stroke-width="1.5"/>

  <!-- src children -->
  <rect x="10" y="190" width="120" height="44" rx="5" fill="#ddeaf2"/>
  <text x="70" y="208" text-anchor="middle" fill="#00193c" font-weight="bold">context/</text>
  <text x="70" y="225" text-anchor="middle" fill="#4e6874" font-size="10">AppContext.tsx</text>

  <rect x="145" y="190" width="100" height="44" rx="5" fill="#ddeaf2"/>
  <text x="195" y="208" text-anchor="middle" fill="#00193c" font-weight="bold">lib/</text>
  <text x="195" y="225" text-anchor="middle" fill="#4e6874" font-size="10">supabase.ts</text>

  <rect x="260" y="190" width="100" height="44" rx="5" fill="#ddeaf2"/>
  <text x="310" y="208" text-anchor="middle" fill="#00193c" font-weight="bold">types/</text>
  <text x="310" y="225" text-anchor="middle" fill="#4e6874" font-size="10">index.ts</text>

  <rect x="375" y="190" width="100" height="44" rx="5" fill="#ddeaf2"/>
  <text x="425" y="208" text-anchor="middle" fill="#00193c" font-weight="bold">data/</text>
  <text x="425" y="225" text-anchor="middle" fill="#4e6874" font-size="10">mockData.ts</text>

  <rect x="490" y="190" width="110" height="44" rx="5" fill="#ddeaf2"/>
  <text x="545" y="208" text-anchor="middle" fill="#00193c" font-weight="bold">components/</text>
  <text x="545" y="225" text-anchor="middle" fill="#4e6874" font-size="10">TopAppBar / BottomNav</text>

  <rect x="615" y="190" width="100" height="44" rx="5" fill="#a3f69c"/>
  <text x="665" y="208" text-anchor="middle" fill="#005312" font-weight="bold">utils/</text>
  <text x="665" y="225" text-anchor="middle" fill="#005312" font-size="10">3 helpers</text>

  <rect x="730" y="190" width="80" height="44" rx="5" fill="#7c9ef8"/>
  <text x="770" y="216" text-anchor="middle" fill="white" font-weight="bold">pages/</text>

  <!-- Lines from src to children -->
  <line x1="100" y1="148" x2="70"  y2="190" stroke="#cbd5e1" stroke-width="1.2"/>
  <line x1="100" y1="148" x2="195" y2="190" stroke="#cbd5e1" stroke-width="1.2"/>
  <line x1="100" y1="148" x2="310" y2="190" stroke="#cbd5e1" stroke-width="1.2"/>
  <line x1="100" y1="148" x2="425" y2="190" stroke="#cbd5e1" stroke-width="1.2"/>
  <line x1="100" y1="148" x2="545" y2="190" stroke="#cbd5e1" stroke-width="1.2"/>
  <line x1="100" y1="148" x2="665" y2="190" stroke="#cbd5e1" stroke-width="1.2"/>
  <line x1="100" y1="148" x2="770" y2="190" stroke="#cbd5e1" stroke-width="1.2"/>

  <!-- utils children -->
  <rect x="570" y="270" width="130" height="24" rx="4" fill="#f0fdf4"/>
  <text x="635" y="287" text-anchor="middle" fill="#005312" font-size="11">format.ts</text>
  <rect x="570" y="300" width="130" height="24" rx="4" fill="#f0fdf4"/>
  <text x="635" y="317" text-anchor="middle" fill="#005312" font-size="11">summaryUtils.ts</text>
  <rect x="570" y="330" width="130" height="24" rx="4" fill="#f0fdf4"/>
  <text x="635" y="347" text-anchor="middle" fill="#005312" font-size="11">parseMaxXlsx.ts</text>
  <line x1="665" y1="234" x2="635" y2="270" stroke="#86efac" stroke-width="1.2"/>
  <line x1="635" y1="270" x2="635" y2="300" stroke="#86efac" stroke-width="1"/>
  <line x1="635" y1="300" x2="635" y2="330" stroke="#86efac" stroke-width="1"/>

  <!-- pages children -->
  <rect x="720" y="270" width="150" height="22" rx="4" fill="#e8eeff"/>
  <text x="795" y="286" text-anchor="middle" fill="#002d62" font-size="11">DashboardPage.tsx</text>
  <rect x="720" y="297" width="150" height="22" rx="4" fill="#e8eeff"/>
  <text x="795" y="313" text-anchor="middle" fill="#002d62" font-size="11">TransactionsPage.tsx</text>
  <rect x="720" y="324" width="150" height="22" rx="4" fill="#e8eeff"/>
  <text x="795" y="340" text-anchor="middle" fill="#002d62" font-size="11">AddTransactionPage.tsx</text>
  <rect x="720" y="351" width="150" height="22" rx="4" fill="#e8eeff"/>
  <text x="795" y="367" text-anchor="middle" fill="#002d62" font-size="11">UsersPage.tsx</text>
  <rect x="720" y="378" width="150" height="22" rx="4" fill="#e8eeff"/>
  <text x="795" y="394" text-anchor="middle" fill="#002d62" font-size="11">SummaryPage.tsx</text>
  <rect x="720" y="405" width="150" height="22" rx="4" fill="#e8eeff"/>
  <text x="795" y="421" text-anchor="middle" fill="#002d62" font-size="11">AnalyticsPage.tsx</text>
  <rect x="720" y="432" width="150" height="22" rx="4" fill="#c7d7ff"/>
  <text x="795" y="448" text-anchor="middle" fill="#002d62" font-size="11" font-weight="bold">ImportPage.tsx</text>

  <line x1="770" y1="234" x2="795" y2="270" stroke="#93c5fd" stroke-width="1.2"/>
  <line x1="795" y1="270" x2="795" y2="297"  stroke="#93c5fd" stroke-width="1"/>
  <line x1="795" y1="297" x2="795" y2="324"  stroke="#93c5fd" stroke-width="1"/>
  <line x1="795" y1="324" x2="795" y2="351"  stroke="#93c5fd" stroke-width="1"/>
  <line x1="795" y1="351" x2="795" y2="378"  stroke="#93c5fd" stroke-width="1"/>
  <line x1="795" y1="378" x2="795" y2="405"  stroke="#93c5fd" stroke-width="1"/>
  <line x1="795" y1="405" x2="795" y2="432"  stroke="#93c5fd" stroke-width="1"/>

  <!-- Legend -->
  <rect x="20" y="500" width="860" height="50" rx="8" fill="#f1f5f9"/>
  <text x="40" y="522" fill="#00193c" font-size="11" font-weight="bold">Legend:</text>
  <rect x="100" y="510" width="14" height="14" rx="3" fill="#002d62"/>
  <text x="120" y="522" fill="#4e6874" font-size="11">Core module</text>
  <rect x="220" y="510" width="14" height="14" rx="3" fill="#7c9ef8"/>
  <text x="240" y="522" fill="#4e6874" font-size="11">Pages</text>
  <rect x="300" y="510" width="14" height="14" rx="3" fill="#a3f69c"/>
  <text x="320" y="522" fill="#4e6874" font-size="11">Utils</text>
  <rect x="380" y="510" width="14" height="14" rx="3" fill="#c7d7ff"/>
  <text x="400" y="522" fill="#4e6874" font-size="11">New feature</text>
  <rect x="500" y="510" width="14" height="14" rx="3" fill="#4e6874"/>
  <text x="520" y="522" fill="#4e6874" font-size="11">Static / reference</text>
</svg>
