<svg xmlns="http://www.w3.org/2000/svg" width="1800" height="1160" viewBox="0 0 1800 1160">
  <defs>
    <style>
      .bg { fill: #f8fbff; }
      .line { stroke: #7aa6c2; stroke-width: 2; fill: none; }
      .root { fill: #0b3b5a; }
      .tier1 { fill: #d9ecf8; }
      .tier2 { fill: #eef6fc; }
      .tier3 { fill: #ffffff; }
      .txtRoot { fill: #ffffff; font: 700 18px 'Segoe UI', Arial, sans-serif; }
      .txt1 { fill: #09344f; font: 700 16px 'Segoe UI', Arial, sans-serif; }
      .txt2 { fill: #184760; font: 600 14px 'Segoe UI', Arial, sans-serif; }
      .title { fill: #0a2f47; font: 700 28px 'Segoe UI', Arial, sans-serif; }
      .subtitle { fill: #3a6481; font: 500 14px 'Segoe UI', Arial, sans-serif; }
      .box { rx: 12; ry: 12; stroke: #bdd7ea; stroke-width: 1.5; }
    </style>
  </defs>

  <rect class="bg" x="0" y="0" width="1800" height="1160" />
  <text class="title" x="900" y="50" text-anchor="middle">Family_Pay_App - Project Structure</text>
  <text class="subtitle" x="900" y="76" text-anchor="middle">React + TypeScript + Vite</text>

  <!-- Root -->
  <rect class="root box" x="760" y="100" width="280" height="56" />
  <text class="txtRoot" x="900" y="135" text-anchor="middle">Family_Pay_App</text>

  <!-- Tier 1 -->
  <rect class="tier1 box" x="120" y="230" width="180" height="50" />
  <text class="txt1" x="210" y="261" text-anchor="middle">src</text>

  <rect class="tier1 box" x="360" y="230" width="180" height="50" />
  <text class="txt1" x="450" y="261" text-anchor="middle">screens</text>

  <rect class="tier1 box" x="600" y="230" width="180" height="50" />
  <text class="txt1" x="690" y="261" text-anchor="middle">public</text>

  <rect class="tier1 box" x="840" y="230" width="180" height="50" />
  <text class="txt1" x="930" y="261" text-anchor="middle">dist</text>

  <rect class="tier1 box" x="1080" y="230" width="220" height="50" />
  <text class="txt1" x="1190" y="261" text-anchor="middle">package.json</text>

  <rect class="tier1 box" x="1340" y="230" width="240" height="50" />
  <text class="txt1" x="1460" y="261" text-anchor="middle">vite / tsconfig</text>

  <rect class="tier1 box" x="1620" y="230" width="140" height="50" />
  <text class="txt1" x="1690" y="261" text-anchor="middle">CLAUDE.md</text>

  <!-- Root connections -->
  <path class="line" d="M900 156 L900 190" />
  <path class="line" d="M210 230 L210 190 L1690 190 L1690 230" />
  <path class="line" d="M450 230 L450 190" />
  <path class="line" d="M690 230 L690 190" />
  <path class="line" d="M930 230 L930 190" />
  <path class="line" d="M1190 230 L1190 190" />
  <path class="line" d="M1460 230 L1460 190" />

  <!-- src children -->
  <rect class="tier2 box" x="20" y="360" width="180" height="48" />
  <text class="txt2" x="110" y="390" text-anchor="middle">App.tsx (Router)</text>

  <rect class="tier2 box" x="220" y="360" width="140" height="48" />
  <text class="txt2" x="290" y="390" text-anchor="middle">index.css</text>

  <rect class="tier2 box" x="380" y="360" width="160" height="48" />
  <text class="txt2" x="460" y="390" text-anchor="middle">components</text>

  <rect class="tier2 box" x="560" y="360" width="140" height="48" />
  <text class="txt2" x="630" y="390" text-anchor="middle">pages</text>

  <rect class="tier2 box" x="720" y="360" width="120" height="48" />
  <text class="txt2" x="780" y="390" text-anchor="middle">data</text>

  <rect class="tier2 box" x="860" y="360" width="120" height="48" />
  <text class="txt2" x="920" y="390" text-anchor="middle">types</text>

  <path class="line" d="M210 280 L210 320" />
  <path class="line" d="M110 360 L110 320 L920 320 L920 360" />
  <path class="line" d="M290 360 L290 320" />
  <path class="line" d="M460 360 L460 320" />
  <path class="line" d="M630 360 L630 320" />
  <path class="line" d="M780 360 L780 320" />

  <!-- components children -->
  <rect class="tier3 box" x="300" y="470" width="180" height="44" />
  <text class="txt2" x="390" y="498" text-anchor="middle">TopAppBar.tsx</text>

  <rect class="tier3 box" x="500" y="470" width="200" height="44" />
  <text class="txt2" x="600" y="498" text-anchor="middle">BottomNavBar.tsx</text>

  <path class="line" d="M460 408 L460 440" />
  <path class="line" d="M390 470 L390 440 L600 440 L600 470" />

  <!-- pages children -->
  <rect class="tier3 box" x="520" y="570" width="190" height="42" />
  <text class="txt2" x="615" y="597" text-anchor="middle">DashboardPage.tsx</text>

  <rect class="tier3 box" x="720" y="570" width="210" height="42" />
  <text class="txt2" x="825" y="597" text-anchor="middle">TransactionsPage.tsx</text>

  <rect class="tier3 box" x="940" y="570" width="170" height="42" />
  <text class="txt2" x="1025" y="597" text-anchor="middle">UsersPage.tsx</text>

  <rect class="tier3 box" x="1120" y="570" width="180" height="42" />
  <text class="txt2" x="1210" y="597" text-anchor="middle">SummaryPage.tsx</text>

  <rect class="tier3 box" x="1310" y="570" width="220" height="42" />
  <text class="txt2" x="1420" y="597" text-anchor="middle">AddTransactionPage.tsx</text>

  <path class="line" d="M630 408 L630 540" />
  <path class="line" d="M615 570 L615 540 L1420 540 L1420 570" />
  <path class="line" d="M825 570 L825 540" />
  <path class="line" d="M1025 570 L1025 540" />
  <path class="line" d="M1210 570 L1210 540" />

  <!-- data/type leaf -->
  <rect class="tier3 box" x="720" y="690" width="140" height="42" />
  <text class="txt2" x="790" y="717" text-anchor="middle">mockData.ts</text>
  <path class="line" d="M780 408 L780 690" />

  <rect class="tier3 box" x="870" y="690" width="120" height="42" />
  <text class="txt2" x="930" y="717" text-anchor="middle">index.ts</text>
  <path class="line" d="M920 408 L920 690" />

  <!-- screens children -->
  <rect class="tier2 box" x="300" y="860" width="170" height="42" />
  <text class="txt2" x="385" y="887" text-anchor="middle">dashboard.html</text>

  <rect class="tier2 box" x="480" y="860" width="185" height="42" />
  <text class="txt2" x="572" y="887" text-anchor="middle">transactions.html</text>

  <rect class="tier2 box" x="675" y="860" width="140" height="42" />
  <text class="txt2" x="745" y="887" text-anchor="middle">users.html</text>

  <rect class="tier2 box" x="825" y="860" width="160" height="42" />
  <text class="txt2" x="905" y="887" text-anchor="middle">summary.html</text>

  <rect class="tier2 box" x="995" y="860" width="210" height="42" />
  <text class="txt2" x="1100" y="887" text-anchor="middle">add-transaction.html</text>

  <path class="line" d="M450 280 L450 820" />
  <path class="line" d="M385 860 L385 820 L1100 820 L1100 860" />
  <path class="line" d="M572 860 L572 820" />
  <path class="line" d="M745 860 L745 820" />
  <path class="line" d="M905 860 L905 820" />
</svg>
